<?xml version="1.0" encoding="UTF-8" standalone="no"?>
<!-- Created with Inkscape (http://www.inkscape.org/) -->

<svg
   xmlns:dc="http://purl.org/dc/elements/1.1/"
   xmlns:cc="http://creativecommons.org/ns#"
   xmlns:rdf="http://www.w3.org/1999/02/22-rdf-syntax-ns#"
   xmlns:svg="http://www.w3.org/2000/svg"
   xmlns="http://www.w3.org/2000/svg"
   xmlns:xlink="http://www.w3.org/1999/xlink"
   xmlns:sodipodi="http://sodipodi.sourceforge.net/DTD/sodipodi-0.dtd"
   xmlns:inkscape="http://www.inkscape.org/namespaces/inkscape"
   width="744.09448819"
   height="1052.3622047"
   id="svg3115"
   version="1.1"
   inkscape:version="0.48.5 r10040"
   sodipodi:docname="drawing.svg">
  <defs
     id="defs3117">
    <radialGradient
       gradientTransform="matrix(2.382716e-8,-0.296405,1.43676,4.683673e-7,-128.544,150.5202)"
       gradientUnits="userSpaceOnUse"
       xlink:href="#linearGradient2795"
       id="radialGradient1480"
       fy="132.28575"
       fx="61.518883"
       r="29.036913"
       cy="132.28575"
       cx="61.518883" />
    <linearGradient
       gradientTransform="matrix(0.562541,0,0,0.567972,-9.399749,-5.305317)"
       gradientUnits="userSpaceOnUse"
       xlink:href="#linearGradient4689"
       id="linearGradient1478"
       y2="114.39767"
       x2="135.66525"
       y1="20.603781"
       x1="26.648937" />
    <linearGradient
       gradientTransform="matrix(0.562541,0,0,0.567972,-9.399749,-5.305317)"
       gradientUnits="userSpaceOnUse"
       xlink:href="#linearGradient4671"
       id="linearGradient1475"
       y2="137.27299"
       x2="112.03144"
       y1="192.35176"
       x1="150.96111" />
    <radialGradient
       gradientTransform="matrix(1,0,0,0.177966,0,108.7434)"
       gradientUnits="userSpaceOnUse"
       xlink:href="#linearGradient2795"
       id="radialGradient2801"
       fy="132.28575"
       fx="61.518883"
       r="29.036913"
       cy="132.28575"
       cx="61.518883" />
    <linearGradient
       gradientTransform="matrix(0.562541,0,0,0.567972,-11.5974,-7.60954)"
       gradientUnits="userSpaceOnUse"
       xlink:href="#linearGradient4689"
       id="linearGradient2258"
       y2="76.313133"
       x2="26.670298"
       y1="76.176224"
       x1="172.94208" />
    <linearGradient
       gradientTransform="matrix(0.562541,0,0,0.567972,-11.5974,-7.60954)"
       gradientUnits="userSpaceOnUse"
       xlink:href="#linearGradient4671"
       id="linearGradient2255"
       y2="144.75717"
       x2="-65.308502"
       y1="144.75717"
       x1="224.23996" />
    <linearGradient
       gradientTransform="translate(100.2702,99.61116)"
       gradientUnits="userSpaceOnUse"
       xlink:href="#linearGradient4671"
       id="linearGradient2250"
       y2="144.75717"
       x2="-65.308502"
       y1="144.75717"
       x1="224.23996" />
    <linearGradient
       gradientTransform="translate(100.2702,99.61116)"
       gradientUnits="userSpaceOnUse"
       xlink:href="#linearGradient4689"
       id="linearGradient2248"
       y2="76.313133"
       x2="26.670298"
       y1="77.475983"
       x1="172.94208" />
    <linearGradient
       gradientTransform="translate(100.2702,99.61116)"
       gradientUnits="userSpaceOnUse"
       xlink:href="#linearGradient4671"
       id="linearGradient2589"
       y2="144.75717"
       x2="-65.308502"
       y1="144.75717"
       x1="224.23996" />
    <linearGradient
       gradientTransform="translate(100.2702,99.61116)"
       gradientUnits="userSpaceOnUse"
       xlink:href="#linearGradient4689"
       id="linearGradient2587"
       y2="76.313133"
       x2="26.670298"
       y1="77.475983"
       x1="172.94208" />
    <linearGradient
       gradientTransform="translate(100.2702,99.61116)"
       gradientUnits="userSpaceOnUse"
       xlink:href="#linearGradient4689"
       id="linearGradient2990"
       y2="76.313133"
       x2="26.670298"
       y1="77.475983"
       x1="172.94208" />
    <linearGradient
       gradientTransform="translate(100.2702,99.61116)"
       gradientUnits="userSpaceOnUse"
       xlink:href="#linearGradient4671"
       id="linearGradient2987"
       y2="144.75717"
       x2="-65.308502"
       y1="144.75717"
       x1="224.23996" />
    <linearGradient
       id="linearGradient4689">
      <stop
         id="stop4691"
         offset="0"
         style="stop-color:#5a9fd4;stop-opacity:1" />
      <stop
         id="stop4693"
         offset="1"
         style="stop-color:#306998;stop-opacity:1" />
    </linearGradient>
    <linearGradient
       id="linearGradient4671">
      <stop
         id="stop4673"
         offset="0"
         style="stop-color:#ffd43b;stop-opacity:1" />
      <stop
         id="stop4675"
         offset="1"
         style="stop-color:#ffe873;stop-opacity:1" />
    </linearGradient>
    <linearGradient
       id="linearGradient3236">
      <stop
         id="stop3244"
         offset="0"
         style="stop-color:#f4f4f4;stop-opacity:1" />
      <stop
         id="stop3240"
         offset="1"
         style="stop-color:#ffffff;stop-opacity:1" />
    </linearGradient>
    <linearGradient
       id="linearGradient3676">
      <stop
         id="stop3678"
         offset="0"
         style="stop-color:#b2b2b2;stop-opacity:0.5" />
      <stop
         id="stop3680"
         offset="1"
         style="stop-color:#b3b3b3;stop-opacity:0" />
    </linearGradient>
    <linearGradient
       id="linearGradient2787">
      <stop
         id="stop2789"
         offset="0"
         style="stop-color:#7f7f7f;stop-opacity:0.5" />
      <stop
         id="stop2791"
         offset="1"
         style="stop-color:#7f7f7f;stop-opacity:0" />
    </linearGradient>
    <linearGradient
       id="linearGradient2795">
      <stop
         id="stop2797"
         offset="0"
         style="stop-color:#b8b8b8;stop-opacity:0.49803922" />
      <stop
         id="stop2799"
         offset="1"
         style="stop-color:#7f7f7f;stop-opacity:0" />
    </linearGradient>
    <radialGradient
       inkscape:collect="always"
       xlink:href="#linearGradient2795"
       id="radialGradient3529"
       gradientUnits="userSpaceOnUse"
       gradientTransform="matrix(1.3090598e-8,-0.17958535,0.7893533,2.8377356e-7,228.1579,593.4206)"
       cx="61.518883"
       cy="132.28575"
       fx="61.518883"
       fy="132.28575"
       r="29.036913" />
    <linearGradient
       inkscape:collect="always"
       xlink:href="#linearGradient4671"
       id="linearGradient3533"
       gradientUnits="userSpaceOnUse"
       gradientTransform="matrix(0.42102688,0,0,0.42509165,280.58281,475.03816)"
       x1="150.96111"
       y1="192.35176"
       x2="112.03144"
       y2="137.27299" />
    <linearGradient
       inkscape:collect="always"
       xlink:href="#linearGradient4689"
       id="linearGradient3536"
       gradientUnits="userSpaceOnUse"
       gradientTransform="matrix(0.42102688,0,0,0.42509165,280.58281,475.03816)"
       x1="26.648937"
       y1="20.603781"
       x2="135.66525"
       y2="114.39767" />
  </defs>
  <sodipodi:namedview
     id="base"
     pagecolor="#ffffff"
     bordercolor="#666666"
     borderopacity="1.0"
     inkscape:pageopacity="0.0"
     inkscape:pageshadow="2"
     inkscape:zoom="1"
     inkscape:cx="339.36359"
     inkscape:cy="440.44874"
     inkscape:document-units="px"
     inkscape:current-layer="layer3"
     showgrid="false"
     inkscape:window-width="1339"
     inkscape:window-height="868"
     inkscape:window-x="0"
     inkscape:window-y="0"
     inkscape:window-maximized="0" />
  <metadata
     id="metadata3120">
    <rdf:RDF>
      <cc:Work
         rdf:about="">
        <dc:format>image/svg+xml</dc:format>
        <dc:type
           rdf:resource="http://purl.org/dc/dcmitype/StillImage" />
        <dc:title></dc:title>
      </cc:Work>
    </rdf:RDF>
  </metadata>
  <g
     inkscape:groupmode="layer"
     id="layer3"
     inkscape:label="Layer">
    <rect
       style="fill:#ffffff"
       id="rect3221"
       width="223.26186"
       height="100.99941"
       x="225.38815"
       y="479.32343" />
    <rect
       style="fill:#000000"
       id="rect3322"
       width="52.094433"
       height="8.5052137"
       x="173.29373"
       y="481.44971" />
    <rect
       style="fill:#000000"
       id="rect3322-5"
       width="52.094433"
       height="8.5052137"
       x="449.18161"
       y="480.38657" />
    <rect
       style="fill:#b3b3b3"
       id="rect4368"
       width="517"
       height="567"
       x="81"
       y="303.36218" />
    <rect
       style="fill:#ffffff"
       id="rect4370"
       width="223"
       height="97"
       x="224"
       y="479.36218" />
  </g>
  <g
     inkscape:label="Layer 1"
     inkscape:groupmode="layer"
     id="layer1">
    <rect
       style="fill:#000000"
       id="rect3123"
       width="20.199883"
       height="392.30298"
       x="161.59906"
       y="338.9874" />
    <rect
       style="fill:#000000"
       id="rect3127"
       width="187.1147"
       height="21.263035"
       x="153.09384"
       y="325.16641" />
    <rect
       style="fill:#000000"
       id="rect3129"
       width="3.189455"
       height="115.88353"
       x="223.26186"
       y="478.26025" />
    <rect
       style="fill:#000000"
       id="rect3131"
       width="111.63093"
       height="3.189455"
       x="223.26186"
       y="477.19708" />
    <rect
       style="fill:#000000"
       id="rect3133"
       width="165.85167"
       height="23.389338"
       x="174.35687"
       y="572.88074" />
    <rect
       style="fill:#000000"
       id="rect3137"
       width="22.326185"
       height="98.873108"
       x="160.5359"
       y="719.5957" />
    <rect
       style="fill:#000000"
       id="rect3139"
       width="18.073578"
       height="129.70451"
       x="211.56718"
       y="721.72205" />
    <rect
       style="fill:#000000"
       id="rect3139-3"
       width="18.073578"
       height="129.70451"
       x="245.05647"
       y="720.65887" />
    <rect
       style="fill:#000000"
       id="rect3139-6"
       width="18.073578"
       height="129.70451"
       x="279.0773"
       y="721.72198" />
    <rect
       style="fill:#000000"
       id="rect3139-7"
       width="18.073578"
       height="129.70451"
       x="312.035"
       y="719.5957" />
    <path
       style="fill:none;stroke:#000000;stroke-width:1.10140336px;stroke-linecap:butt;stroke-linejoin:miter;stroke-opacity:1"
       d="M 217.9968,732.30282 238.09528,593.13135"
       id="path3173"
       inkscape:connector-curvature="0" />
    <path
       style="fill:none;stroke:#000000;stroke-width:1px;stroke-linecap:butt;stroke-linejoin:miter;stroke-opacity:1"
       d="M 227.51446,729.16407 248.7775,594.1438"
       id="path3175"
       inkscape:connector-curvature="0" />
    <path
       style="fill:none;stroke:#000000;stroke-width:1px;stroke-linecap:butt;stroke-linejoin:miter;stroke-opacity:1"
       d="M 246.65119,730.22722 258.34586,597.33326"
       id="path3177"
       inkscape:connector-curvature="0" />
    <path
       style="fill:none;stroke:#000000;stroke-width:1px;stroke-linecap:butt;stroke-linejoin:miter;stroke-opacity:1"
       d="M 262.59847,723.84831 268.97738,594.1438"
       id="path3179"
       inkscape:connector-curvature="0" />
    <path
       style="fill:none;stroke:#000000;stroke-width:1px;stroke-linecap:butt;stroke-linejoin:miter;stroke-opacity:1"
       d="M 279.6089,723.84831 282.79835,594.1438"
       id="path3181"
       inkscape:connector-curvature="0" />
    <path
       style="fill:none;stroke:#000000;stroke-width:1px;stroke-linecap:butt;stroke-linejoin:miter;stroke-opacity:1"
       d="m 292.36672,594.1438 0,138.20972"
       id="path3183"
       inkscape:connector-curvature="0" />
    <rect
       style="fill:#000000"
       id="rect3189"
       width="154.157"
       height="13.820972"
       x="174.35687"
       y="765.31122" />
    <rect
       y="338.9874"
       x="-512.43909"
       height="392.30298"
       width="20.199883"
       id="rect3225"
       style="fill:#000000"
       transform="scale(-1,1)" />
    <rect
       y="325.16641"
       x="-520.94434"
       height="21.263035"
       width="187.1147"
       id="rect3227"
       style="fill:#000000"
       transform="scale(-1,1)" />
    <rect
       y="477.19711"
       x="-450.77631"
       height="116.94669"
       width="3.189455"
       id="rect3229"
       style="fill:#000000"
       transform="scale(-1,1)" />
    <rect
       y="477.19708"
       x="-449.71317"
       height="3.189455"
       width="116.94669"
       id="rect3231"
       style="fill:#000000"
       transform="scale(-1,1)" />
    <rect
       y="572.88074"
       x="-499.6813"
       height="23.389338"
       width="165.85167"
       id="rect3233"
       style="fill:#000000"
       transform="scale(-1,1)" />
    <rect
       y="719.5957"
       x="-513.50226"
       height="98.873108"
       width="22.326185"
       id="rect3235"
       style="fill:#000000"
       transform="scale(-1,1)" />
    <rect
       y="721.72205"
       x="-462.47098"
       height="129.70451"
       width="18.073578"
       id="rect3237"
       style="fill:#000000"
       transform="scale(-1,1)" />
    <rect
       y="721.72198"
       x="-428.98169"
       height="129.70451"
       width="18.073578"
       id="rect3239"
       style="fill:#000000"
       transform="scale(-1,1)" />
    <rect
       y="721.72198"
       x="-394.96088"
       height="129.70451"
       width="18.073578"
       id="rect3241"
       style="fill:#000000"
       transform="scale(-1,1)" />
    <rect
       y="719.5957"
       x="-363.06631"
       height="129.70451"
       width="18.073578"
       id="rect3243"
       style="fill:#000000"
       transform="scale(-1,1)" />
    <path
       inkscape:connector-curvature="0"
       id="path3245"
       d="M 456.04137,732.30282 435.94289,593.13135"
       style="fill:none;stroke:#000000;stroke-width:1.10140336px;stroke-linecap:butt;stroke-linejoin:miter;stroke-opacity:1" />
    <path
       inkscape:connector-curvature="0"
       id="path3247"
       d="M 446.52371,729.16407 425.26067,594.1438"
       style="fill:none;stroke:#000000;stroke-width:1px;stroke-linecap:butt;stroke-linejoin:miter;stroke-opacity:1" />
    <path
       inkscape:connector-curvature="0"
       id="path3249"
       d="M 427.38698,730.22722 415.69231,597.33326"
       style="fill:none;stroke:#000000;stroke-width:1px;stroke-linecap:butt;stroke-linejoin:miter;stroke-opacity:1" />
    <path
       inkscape:connector-curvature="0"
       id="path3251"
       d="M 411.4397,723.84831 405.06079,594.1438"
       style="fill:none;stroke:#000000;stroke-width:1px;stroke-linecap:butt;stroke-linejoin:miter;stroke-opacity:1" />
    <path
       inkscape:connector-curvature="0"
       id="path3253"
       d="M 394.42927,723.84831 391.23982,594.1438"
       style="fill:none;stroke:#000000;stroke-width:1px;stroke-linecap:butt;stroke-linejoin:miter;stroke-opacity:1" />
    <path
       inkscape:connector-curvature="0"
       id="path3255"
       d="m 381.67145,594.1438 0,138.20972"
       style="fill:none;stroke:#000000;stroke-width:1px;stroke-linecap:butt;stroke-linejoin:miter;stroke-opacity:1" />
    <rect
       y="765.31122"
       x="-499.6813"
       height="13.820972"
       width="154.157"
       id="rect3261"
       style="fill:#000000"
       transform="scale(-1,1)" />
    <rect
       style="fill:#000000"
       id="rect3216"
       width="70.168015"
       height="13.820972"
       x="307.25085"
       y="765.31122" />
    <path
       style="fill:none;stroke:#000000;stroke-width:1px;stroke-linecap:butt;stroke-linejoin:miter;stroke-opacity:1"
       d="m 311.50345,722.78516 0,-136.08342"
       id="path3344"
       inkscape:connector-curvature="0" />
    <path
       style="fill:none;stroke:#000000;stroke-width:1px;stroke-linecap:butt;stroke-linejoin:miter;stroke-opacity:1"
       d="m 328.41638,721.209 0,-125.89295"
       id="path3346"
       inkscape:connector-curvature="0" />
    <path
       style="fill:none;stroke:#000000;stroke-width:1px;stroke-linecap:butt;stroke-linejoin:miter;stroke-opacity:1"
       d="m 348.48627,722.12127 -2.7368,-126.80522"
       id="path3348"
       inkscape:connector-curvature="0" />
    <path
       style="fill:none;stroke:#000000;stroke-width:1px;stroke-linecap:butt;stroke-linejoin:miter;stroke-opacity:1"
       d="M 361.25802,719.38446 360.34575,595.31605"
       id="path3350"
       inkscape:connector-curvature="0" />
    <path
       inkscape:connector-curvature="0"
       id="path1948"
       style="fill:url(#linearGradient3536);fill-opacity:1"
       d="m 332.90602,483.79734 c -3.43058,0.0159 -6.7067,0.30852 -9.58936,0.81861 -8.49193,1.50024 -10.03374,4.64039 -10.03374,10.43135 l 0,7.6481 20.06749,0 0,2.54936 -20.06749,0 -7.53115,0 c -5.83217,0 -10.93899,3.50547 -12.53634,10.17408 -1.84251,7.64376 -1.92424,12.4136 0,20.39492 1.42647,5.94099 4.83307,10.17408 10.66524,10.17408 l 6.89966,0 0,-9.16836 c 0,-6.6236 5.7309,-12.46617 12.53633,-12.46617 l 20.0441,0 c 5.57957,0 10.03374,-4.59403 10.03374,-10.19746 l 0,-19.10855 c 0,-5.4384 -4.58791,-9.52371 -10.03374,-10.43135 -3.44729,-0.57385 -7.02416,-0.83455 -10.45474,-0.81861 z m -10.85235,6.15123 c 2.07284,0 3.76558,1.72039 3.76558,3.83574 0,2.10785 -1.69274,3.81235 -3.76558,3.81235 -2.08026,0 -3.76557,-1.7045 -3.76557,-3.81235 0,-2.11535 1.68531,-3.83574 3.76557,-3.83574 z" />
    <path
       inkscape:connector-curvature="0"
       id="path1950"
       style="fill:url(#linearGradient3533);fill-opacity:1"
       d="m 355.89709,505.24476 0,8.91109 c 0,6.90864 -5.85719,12.72344 -12.53633,12.72344 l -20.0441,0 c -5.49041,0 -10.03374,4.69905 -10.03374,10.19746 l 0,19.10855 c 0,5.4384 4.72907,8.63721 10.03374,10.19746 6.35224,1.86781 12.44371,2.20537 20.0441,0 5.05207,-1.46274 10.03374,-4.40651 10.03374,-10.19746 l 0,-7.6481 -20.04409,0 0,-2.54936 20.04409,0 10.03375,0 c 5.83217,0 8.00547,-4.06807 10.03373,-10.17408 2.09513,-6.28604 2.00598,-12.33109 0,-20.39492 -1.44132,-5.80597 -4.19414,-10.17408 -10.03373,-10.17408 l -7.53116,0 z m -11.27334,48.39118 c 2.08026,0 3.76558,1.7045 3.76558,3.81235 -10e-6,2.11534 -1.68532,3.83574 -3.76558,3.83574 -2.07284,0 -3.76558,-1.7204 -3.76558,-3.83574 0,-2.10785 1.69274,-3.81235 3.76558,-3.81235 z" />
    <path
       inkscape:connector-curvature="0"
       id="path1894"
       style="opacity:0.44382019;fill:url(#radialGradient3529);fill-opacity:1;fill-rule:nonzero;stroke:none"
       d="m 359.4702,582.37274 a 26.892098,5.2145991 0 0 1 -53.7842,0 26.892098,5.2145991 0 1 1 53.7842,0 z" />
  </g>
</svg>
